<svg width="24" height="25" viewBox="0 0 24 25" fill="none" xmlns="http://www.w3.org/2000/svg">
<path d="M23.5918 7.41207C23.592 8.30333 23.4164 9.18592 23.0748 10.0094C22.7331 10.8329 22.2323 11.5811 21.6008 12.2113C20.9693 12.8415 20.2196 13.3414 19.3945 13.6823C18.5694 14.0232 17.6851 14.1986 16.7921 14.1983H13.5994V7.41207C13.5997 6.52081 13.4241 5.63823 13.0824 4.81476C12.7408 3.99129 12.24 3.24307 11.6085 2.61285C10.977 1.98263 10.2273 1.48277 9.40222 1.14184C8.57711 0.8009 7.69278 0.625567 6.79974 0.625856H16.7921C17.6852 0.625277 18.5696 0.800413 19.3949 1.14125C20.2201 1.48208 20.9699 1.98193 21.6015 2.6122C22.233 3.24248 22.7338 3.99081 23.0753 4.81442C23.4169 5.63802 23.5923 6.52073 23.5918 7.41207Z" fill="#6D81FE"/>
<path d="M13.5994 7.41211V14.1983H6.79971C5.45486 14.1983 4.1402 13.8003 3.022 13.0546C1.90379 12.309 1.03225 11.2491 0.5176 10.0091C0.0029464 8.76906 -0.131711 7.40458 0.130657 6.08818C0.393026 4.77178 1.04064 3.5626 1.99159 2.61353C2.94255 1.66446 4.15414 1.01813 5.47315 0.756283C6.79217 0.494436 8.15936 0.628826 9.40184 1.14246C10.6443 1.65609 11.7063 2.5259 12.4535 3.64189C13.2006 4.75787 13.5994 6.06992 13.5994 7.41211Z" fill="#2946D6"/>
<path d="M13.5994 14.1982V17.3845C13.5994 19.1843 12.883 20.9104 11.6078 22.1831C10.3326 23.4557 8.6031 24.1707 6.79971 24.1707C4.99631 24.1707 3.26678 23.4557 1.99159 22.1831C0.716394 20.9104 0 19.1843 0 17.3845V7.41202C0 9.21183 0.716394 10.9379 1.99159 12.2106C3.26678 13.4833 4.99631 14.1982 6.79971 14.1982H13.5994Z" fill="#6D81FE"/>
<path d="M7.91095 6.02575C8.67688 6.02575 9.29779 5.40607 9.29779 4.64166C9.29779 3.87725 8.67688 3.25757 7.91095 3.25757C7.14502 3.25757 6.52411 3.87725 6.52411 4.64166C6.52411 5.40607 7.14502 6.02575 7.91095 6.02575Z" fill="white"/>
<path d="M22.9766 4.58674C22.3345 4.79579 21.638 4.76291 21.0187 4.49432C19.7928 3.953 19.1556 2.57111 19.3364 1.11441C20.9483 1.76734 22.2502 3.00914 22.9766 4.58674Z" fill="#2946D6"/>
</svg>
