<svg width="12" height="12" viewBox="0 0 12 12" fill="none" xmlns="http://www.w3.org/2000/svg">
<path d="M6 10.5C5.36847 9.96131 4.7831 9.37076 4.25 8.7345C3.45 7.779 2.5 6.356 2.5 5C2.49965 4.30748 2.70475 3.63042 3.08935 3.05451C3.47394 2.4786 4.02074 2.02973 4.66053 1.7647C5.30033 1.49967 6.00437 1.4304 6.68356 1.56565C7.36274 1.7009 7.98654 2.03459 8.476 2.5245C8.80188 2.84893 9.06017 3.23477 9.23594 3.65969C9.41171 4.08461 9.50146 4.54017 9.5 5C9.5 6.356 8.55 7.779 7.75 8.7345C7.2169 9.37075 6.63153 9.96131 6 10.5ZM6 3.5C5.60218 3.5 5.22064 3.65804 4.93934 3.93934C4.65804 4.22064 4.5 4.60218 4.5 5C4.5 5.39783 4.65804 5.77936 4.93934 6.06066C5.22064 6.34197 5.60218 6.5 6 6.5C6.39783 6.5 6.77936 6.34197 7.06066 6.06066C7.34197 5.77936 7.5 5.39783 7.5 5C7.5 4.60218 7.34197 4.22064 7.06066 3.93934C6.77936 3.65804 6.39783 3.5 6 3.5Z" fill="#9A9A9A"/>
</svg>
